# xmcd
#
# Track frame offsets: 
#        150
#        12614
#        24872
#        47798
#        60237
#        76243
#        95074
#        111884
#        124400
#        138039
#        149950
#        162451
#        178211
#        194774
#        210703
#
# Disc length: 3149 seconds
#
# Revision: 0
# Processed by: cddbd v1.5.2PL0 Copyright (c) Steve Scherf et al.
# Submitted via: ExactAudioCopyFreeDBPlugin 1.0
#
DISCID=e10c4b0f
DTITLE=Johnny Winter - Classics Volume 2
DYEAR=2012
DGENRE=Rock
TTITLE0=Good Morning Little Schoolgirl
TTITLE1=Slippin’ And Slidin’
TTITLE2=Highay 61 Revisited
TTITLE3=Johnny B. Goode
TTITLE4=Rock And Roll, Hoochie Koo
TTITLE5=Let It Bleed
TTITLE6=Still Alive And Well
TTITLE7=Lucille
TTITLE8=Thirty Days
TTITLE9=Bony Moronie
TTITLE10=Rock And Roll People
TTITLE11=Self Destructive Blues
TTITLE12=Tired Of Tryin’
TTITLE13=Walking By Myself
TTITLE14=Like A Rolling Stone
EXTD=
EXTT0=
EXTT1=
EXTT2=
EXTT3=
EXTT4=
EXTT5=
EXTT6=
EXTT7=
EXTT8=
EXTT9=
EXTT10=
EXTT11=
EXTT12=
EXTT13=
EXTT14=
PLAYORDER=
